# xmcd
#
# Track frame offsets:
#	150
#	19531
#	33181
#	48698
#	62779
#	87712
#	106378
#	126735
#	152613
#	172037
#	185315
#	198848
#	214965
#	229720
#	249583
#
# Disc length: 3686 seconds
#
# Revision: 1
# Processed by: cddbd v1.5.2PL0 Copyright (c) Steve Scherf et al.
# Submitted via: audiograbber 1.83.01
#
DISCID=d40e640f
DTITLE=Dolly Parton - Live from London
DYEAR=2009
DGENRE=Country
TTITLE0=Two Doors Down
TTITLE1=Jolene
TTITLE2=Backwoods Barbie
TTITLE3=Coat Of Many Colors
TTITLE4=Only Dreamin'
TTITLE5=Better Get To Livin'
TTITLE6=Shinola
TTITLE7=Little Sparrow
TTITLE8=The Grass Is Blue
TTITLE9=Do I Ever Cross Your Mind
TTITLE10=Here You Come Again
TTITLE11=Islands In The Stream
TTITLE12=9 To 5
TTITLE13=I Will Always Love You
TTITLE14=Jesus And Gravity
EXTD=
EXTT0=
EXTT1=
EXTT2=
EXTT3=
EXTT4=
EXTT5=
EXTT6=
EXTT7=
EXTT8=
EXTT9=
EXTT10=
EXTT11=
EXTT12=
EXTT13=
EXTT14=
PLAYORDER=
